# xmcd
#
# Track frame offsets:
#	150
#	13782
#	30032
#	43072
#	54100
#	69320
#	85770
#	102995
#	116247
#	131892
#	146185
#	160785
#	172480
#	186577
#
# Disc length: 2724 seconds
#
# Revision: 1
# Processed by: cddbd v1.5.2PL0 Copyright (c) Steve Scherf et al.
# Submitted via: audiograbber 1.83.01
#
DISCID=c60aa20e
DTITLE=Miltinho Rodrigues and Tivagy - Miltinho Rodrigues and Tivagy
DYEAR=1900
DGENRE=
TTITLE0=SUBIDAS E DESCIDAS
TTITLE1=PERFÍDIA
TTITLE2=PRECISO TANTO DE VOCÊ
TTITLE3=LA BAMBA
TTITLE4=ONDE ESTÁ SEU SORRISO
TTITLE5=CÉU ABERTO
TTITLE6=PRODUTO DE EXPORTAÇÃO
TTITLE7=PARA ESQUECER AS MÁGUAS
TTITLE8=SAUDADE NOTURNA
TTITLE9=TUA IMAGEM VAI COMIGO
TTITLE10=AS PALMEIRAS DE RIBEIRÃO PRETO
TTITLE11=ENTRE COPOS E GARRAFAS
TTITLE12=SERENATA HUASTECA
TTITLE13=CORAÇÃO DIVIDIDO
EXTD=
EXTT0=
EXTT1=
EXTT2=
EXTT3=
EXTT4=
EXTT5=
EXTT6=
EXTT7=
EXTT8=
EXTT9=
EXTT10=
EXTT11=
EXTT12=
EXTT13=
PLAYORDER=
